<svg width="99" height="20" viewBox="0 0 99 20" fill="none" xmlns="http://www.w3.org/2000/svg">
<path fill-rule="evenodd" clip-rule="evenodd" d="M83.5971 0H92.0999C95.5 0 98.9997 3.21556 98.9997 7.18215C98.9997 10.4236 96.6065 13.1817 93.8966 14.0751C93.466 14.2171 93.0494 14.3081 92.6404 14.3643H88.699H83.3537V19.0337H78.8926V12.2811V0H83.5971ZM91.5888 4.47718H85.4859H83.3537V4.89286V9.47144V9.88711H85.4859H91.5888C93.6288 9.88711 94.5392 8.67606 94.5392 7.18215C94.5392 5.68824 93.6288 4.47718 91.5888 4.47718Z" fill="black"/>
<path fill-rule="evenodd" clip-rule="evenodd" d="M60.7103 0C55.4375 0 51.1631 4.27443 51.1631 9.5472C51.1631 14.82 55.4375 19.0944 60.7103 19.0944H64.7419C70.0147 19.0944 74.2891 14.82 74.2891 9.5472C74.2891 4.27443 70.0147 0 64.7419 0H60.7103ZM64.8236 4.80638H60.5042C57.8859 4.80638 55.7634 6.92892 55.7634 9.5472C55.7634 12.1655 57.8859 14.288 60.5042 14.288H64.8236C67.4418 14.288 69.5644 12.1655 69.5644 9.5472C69.5644 6.92892 67.4418 4.80638 64.8236 4.80638Z" fill="black"/>
<path fill-rule="evenodd" clip-rule="evenodd" d="M31.3598 0H39.8626C43.2627 0 46.7624 3.21556 46.7624 7.18215C46.7624 10.4236 44.3692 13.1817 41.6593 14.0751L47.5645 19.0337H42.0625L36.4617 14.3643H31.1164V19.0337H26.6553V12.2811V0H31.3598ZM39.3515 4.47718H33.2486H31.1164V4.89286V9.47144V9.88711H33.2486H39.3515C41.3915 9.88711 42.3019 8.67606 42.3019 7.18215C42.3019 5.68824 41.3915 4.47718 39.3515 4.47718Z" fill="black"/>
<path fill-rule="evenodd" clip-rule="evenodd" d="M0.0797612 19.0337H10.7988H12.1592C17.4319 19.0337 21.6247 14.82 21.6247 9.5472C21.6247 4.27443 17.3503 0 12.0775 0L10.7988 9.46636e-08L0 0L5.96289 9.51683L0.0797612 19.0337ZM7.95771 4.42837L10.9048 9.50472L7.93714 14.666H12.1592C14.7774 14.666 17.278 13.0034 17.278 9.5472C17.278 6.09096 14.7774 4.42837 12.1592 4.42837H7.95771Z" fill="black"/>
</svg>
